<?xml version="1.0" encoding="utf-8"?>
<!-- Generator: Adobe Illustrator 24.0.2, SVG Export Plug-In . SVG Version: 6.00 Build 0)  -->
<svg version="1.1" id="Layer_1" xmlns="http://www.w3.org/2000/svg" xmlns:xlink="http://www.w3.org/1999/xlink" x="0px" y="0px"
	 viewBox="0 0 1080 1350" style="enable-background:new 0 0 1080 1350;" xml:space="preserve">
<style type="text/css">
	.st0{fill:#4F77B8;}
</style>
<g>
	<g>
		<path d="M584.47,548.2c58.44,0,80.67,20.52,80.67,75.26v49.03c0,54.73-22.24,75.26-80.67,75.26h-88.94
			c-58.44,0-80.67-20.52-80.67-75.26v-49.03c0-54.73,22.24-75.26,80.67-75.26H584.47z M466.74,668.5c0,25.94,5.99,32.5,30.79,32.5
			h84.95c24.8,0,30.79-6.56,30.79-32.5v-41.05c0-25.94-5.99-32.21-30.79-32.21h-84.95c-24.8,0-30.79,6.27-30.79,32.21V668.5z"/>
		<circle cx="606.85" cy="780.23" r="21.57"/>
	</g>
	<g>
		<path class="st0" d="M584.47,548.2c58.44,0,80.67,20.52,80.67,75.26v49.03c0,54.73-22.24,75.26-80.67,75.26h-88.94
			c-58.44,0-80.67-20.52-80.67-75.26v-49.03c0-54.73,22.24-75.26,80.67-75.26H584.47z M466.74,668.5c0,25.94,5.99,32.5,30.79,32.5
			h84.95c24.8,0,30.79-6.56,30.79-32.5v-41.05c0-25.94-5.99-32.21-30.79-32.21h-84.95c-24.8,0-30.79,6.27-30.79,32.21V668.5z"/>
		<circle class="st0" cx="606.85" cy="780.23" r="21.57"/>
	</g>
</g>
<g>
	<g>
		<g>
			<path d="M-836.02,575.4c2.58,0,3.95,1.37,3.95,3.95v59.58c0,13.68,3.19,17.17,16.41,17.17h42.1c13.22,0,16.57-3.5,16.57-17.17
				v-59.58c0-2.58,1.22-3.95,3.95-3.95h19.6c2.58,0,3.95,1.37,3.95,3.95v62.31c0,29.18-11.85,40.12-43.01,40.12h-44.23
				c-31.16,0-43.01-10.94-43.01-40.12v-62.31c0-2.58,1.37-3.95,3.95-3.95H-836.02z"/>
			<path d="M-678.88,575.4c12.61,0,14.74,2.58,20.21,10.49l46.96,68.54c0.61,0.76,1.06,1.06,1.82,1.06h1.22
				c0.91,0,1.22-0.46,1.22-1.52v-74.62c0-2.58,1.22-3.95,3.95-3.95h19c2.58,0,3.95,1.37,3.95,3.95v84.2
				c0,14.44-5.17,18.24-15.65,18.24h-15.5c-12.61,0-14.74-2.58-20.21-10.49l-47.27-68.54c-0.46-0.76-1.06-1.06-1.82-1.06h-1.22
				c-0.76,0-1.22,0.46-1.22,1.52v74.62c0,2.58-1.22,3.95-3.95,3.95h-19c-2.58,0-3.95-1.37-3.95-3.95v-84.2
				c0-14.44,5.02-18.24,15.5-18.24H-678.88z"/>
			<path d="M-471.88,575.4c31.16,0,43.01,10.94,43.01,40.12v26.14c0,29.18-11.85,40.12-43.01,40.12h-47.42
				c-31.16,0-43.01-10.94-43.01-40.12v-26.14c0-29.18,11.85-40.12,43.01-40.12H-471.88z M-534.65,639.53
				c0,13.83,3.19,17.33,16.41,17.33h45.29c13.22,0,16.41-3.5,16.41-17.33v-21.88c0-13.83-3.19-17.17-16.41-17.17h-45.29
				c-13.22,0-16.41,3.34-16.41,17.17V639.53z"/>
			<path d="M-920.88,574.4c31.16,0,43.01,10.94,43.01,40.12v26.14c0,29.18-11.85,40.12-43.01,40.12h-47.42
				c-31.16,0-43.01-10.94-43.01-40.12v-26.14c0-29.18,11.85-40.12,43.01-40.12H-920.88z M-983.65,638.53
				c0,13.83,3.19,17.33,16.41,17.33h45.29c13.22,0,16.41-3.5,16.41-17.33v-21.88c0-13.83-3.19-17.17-16.41-17.17h-45.29
				c-13.22,0-16.41,3.34-16.41,17.17V638.53z"/>
			<path d="M-304.56,575.4c2.74,0,3.95,1.37,3.95,3.95v17.02c0,2.74-1.22,4.1-3.95,4.1h-74.32c-4.1,0-5.93,2.28-5.93,6.38v3.95
				c0,4.26,1.82,6.38,5.78,6.38h54.71c17.93,0,27.66,9.88,27.66,27.05v12.16c0,15.2-9.12,25.38-28.12,25.38h-83.59
				c-2.58,0-3.95-1.37-3.95-3.95v-17.02c0-2.74,1.37-3.95,3.95-3.95h78.12c4.25,0,6.08-2.43,6.08-6.54v-4.86
				c0-4.26-1.82-6.38-5.93-6.38h-54.56c-18.08,0-27.81-9.88-27.81-27.05v-11.09c0-15.35,9.27-25.53,28.12-25.53H-304.56z"/>
			<path d="M-256.08,575.4c2.58,0,3.95,1.37,3.95,3.95v98.48c0,2.58-1.37,3.95-3.95,3.95h-19.76c-2.58,0-3.95-1.37-3.95-3.95v-98.48
				c0-2.58,1.37-3.95,3.95-3.95H-256.08z"/>
			<path d="M-126.59,575.4c2.74,0,3.95,1.37,3.95,3.95v17.02c0,2.74-1.21,4.1-3.95,4.1h-74.32c-4.1,0-5.93,2.28-5.93,6.38v3.95
				c0,4.26,1.82,6.38,5.78,6.38h54.71c17.93,0,27.66,9.88,27.66,27.05v12.16c0,15.2-9.12,25.38-28.12,25.38h-83.59
				c-2.58,0-3.95-1.37-3.95-3.95v-17.02c0-2.74,1.37-3.95,3.95-3.95h78.12c4.25,0,6.08-2.43,6.08-6.54v-4.86
				c0-4.26-1.82-6.38-5.93-6.38h-54.56c-18.09,0-27.81-9.88-27.81-27.05v-11.09c0-15.35,9.27-25.53,28.12-25.53H-126.59z"/>
			<circle cx="-908.95" cy="698.1" r="11.5"/>
		</g>
		<g>
			<path class="st0" d="M-836.02,575.4c2.58,0,3.95,1.37,3.95,3.95v59.58c0,13.68,3.19,17.17,16.41,17.17h42.1
				c13.22,0,16.57-3.5,16.57-17.17v-59.58c0-2.58,1.22-3.95,3.95-3.95h19.6c2.58,0,3.95,1.37,3.95,3.95v62.31
				c0,29.18-11.85,40.12-43.01,40.12h-44.23c-31.16,0-43.01-10.94-43.01-40.12v-62.31c0-2.58,1.37-3.95,3.95-3.95H-836.02z"/>
			<path class="st0" d="M-678.88,575.4c12.61,0,14.74,2.58,20.21,10.49l46.96,68.54c0.61,0.76,1.06,1.06,1.82,1.06h1.22
				c0.91,0,1.22-0.46,1.22-1.52v-74.62c0-2.58,1.22-3.95,3.95-3.95h19c2.58,0,3.95,1.37,3.95,3.95v84.2
				c0,14.44-5.17,18.24-15.65,18.24h-15.5c-12.61,0-14.74-2.58-20.21-10.49l-47.27-68.54c-0.46-0.76-1.06-1.06-1.82-1.06h-1.22
				c-0.76,0-1.22,0.46-1.22,1.52v74.62c0,2.58-1.22,3.95-3.95,3.95h-19c-2.58,0-3.95-1.37-3.95-3.95v-84.2
				c0-14.44,5.02-18.24,15.5-18.24H-678.88z"/>
			<path class="st0" d="M-471.88,575.4c31.16,0,43.01,10.94,43.01,40.12v26.14c0,29.18-11.85,40.12-43.01,40.12h-47.42
				c-31.16,0-43.01-10.94-43.01-40.12v-26.14c0-29.18,11.85-40.12,43.01-40.12H-471.88z M-534.65,639.53
				c0,13.83,3.19,17.33,16.41,17.33h45.29c13.22,0,16.41-3.5,16.41-17.33v-21.88c0-13.83-3.19-17.17-16.41-17.17h-45.29
				c-13.22,0-16.41,3.34-16.41,17.17V639.53z"/>
			<path class="st0" d="M-920.88,574.4c31.16,0,43.01,10.94,43.01,40.12v26.14c0,29.18-11.85,40.12-43.01,40.12h-47.42
				c-31.16,0-43.01-10.94-43.01-40.12v-26.14c0-29.18,11.85-40.12,43.01-40.12H-920.88z M-983.65,638.53
				c0,13.83,3.19,17.33,16.41,17.33h45.29c13.22,0,16.41-3.5,16.41-17.33v-21.88c0-13.83-3.19-17.17-16.41-17.17h-45.29
				c-13.22,0-16.41,3.34-16.41,17.17V638.53z"/>
			<path class="st0" d="M-304.56,575.4c2.74,0,3.95,1.37,3.95,3.95v17.02c0,2.74-1.22,4.1-3.95,4.1h-74.32
				c-4.1,0-5.93,2.28-5.93,6.38v3.95c0,4.26,1.82,6.38,5.78,6.38h54.71c17.93,0,27.66,9.88,27.66,27.05v12.16
				c0,15.2-9.12,25.38-28.12,25.38h-83.59c-2.58,0-3.95-1.37-3.95-3.95v-17.02c0-2.74,1.37-3.95,3.95-3.95h78.12
				c4.25,0,6.08-2.43,6.08-6.54v-4.86c0-4.26-1.82-6.38-5.93-6.38h-54.56c-18.08,0-27.81-9.88-27.81-27.05v-11.09
				c0-15.35,9.27-25.53,28.12-25.53H-304.56z"/>
			<path class="st0" d="M-256.08,575.4c2.58,0,3.95,1.37,3.95,3.95v98.48c0,2.58-1.37,3.95-3.95,3.95h-19.76
				c-2.58,0-3.95-1.37-3.95-3.95v-98.48c0-2.58,1.37-3.95,3.95-3.95H-256.08z"/>
			<path class="st0" d="M-126.59,575.4c2.74,0,3.95,1.37,3.95,3.95v17.02c0,2.74-1.21,4.1-3.95,4.1h-74.32
				c-4.1,0-5.93,2.28-5.93,6.38v3.95c0,4.26,1.82,6.38,5.78,6.38h54.71c17.93,0,27.66,9.88,27.66,27.05v12.16
				c0,15.2-9.12,25.38-28.12,25.38h-83.59c-2.58,0-3.95-1.37-3.95-3.95v-17.02c0-2.74,1.37-3.95,3.95-3.95h78.12
				c4.25,0,6.08-2.43,6.08-6.54v-4.86c0-4.26-1.82-6.38-5.93-6.38h-54.56c-18.09,0-27.81-9.88-27.81-27.05v-11.09
				c0-15.35,9.27-25.53,28.12-25.53H-126.59z"/>
			<circle class="st0" cx="-908.95" cy="698.1" r="11.5"/>
		</g>
	</g>
	<g>
		<path class="st0" d="M-727.69,735.63c-0.94-3.02-2.26-6.46-6.6-6.46c-2.73,0-4.52,1.93-4.52,4.57c0,2.59,1.74,4.15,5.89,6.22
			c5.04,2.5,8.25,4.95,8.25,9.62c0,5.56-4.62,9.62-11.36,9.62c-3.02,0-5.7-0.8-7.92-1.46c-0.28-1.08-1.08-5.99-1.41-8.2l1.84-0.42
			c0.94,2.97,3.58,8.11,8.2,8.11c2.88,0,4.62-1.79,4.62-4.81c0-2.73-1.7-4.34-5.66-6.46c-4.9-2.64-8.11-5-8.11-9.9
			c0-4.95,3.86-8.86,10.94-8.86c3.25,0,5.7,0.71,6.74,0.85c0.19,1.74,0.52,4.2,0.9,7.17L-727.69,735.63z"/>
		<path class="st0" d="M-693.85,727.19c8.72,0,15.84,6.36,15.84,15.65c0,10.04-7.16,16.36-16.07,16.36
			c-9.43,0-16.26-6.88-16.26-15.98C-710.35,735.16-704.59,727.19-693.85,727.19z M-694.56,729.27c-4.81,0-8.34,4.71-8.34,13.06
			c0,7.97,3.16,14.8,9.52,14.8c4.48,0,7.97-4.34,7.97-12.96C-685.41,734.83-689.09,729.27-694.56,729.27z"/>
		<path class="st0" d="M-638.42,750.2c-0.38,2.03-1.7,7.02-2.12,8.3h-23.38v-1.74c4.15-0.28,4.52-0.61,4.52-4.57v-17.96
			c0-3.96-0.47-4.34-4.01-4.62v-1.74h14.71v1.74c-3.68,0.33-4.15,0.66-4.15,4.62v18.29c0,2.59,0.09,3.77,2.69,3.82
			c0.09,0.05,2.26,0.05,2.45,0.05c2.69,0,3.39-0.57,4.52-1.84c0.9-0.94,2.12-2.97,2.97-4.9L-638.42,750.2z"/>
		<path class="st0" d="M-594.77,729.6c-3.02,0.28-3.82,1.18-4.01,2.88c-0.14,1.41-0.24,3.02-0.24,6.32v6.17
			c0,4.05-0.66,8.15-3.35,10.98c-2.17,2.26-5.51,3.25-8.86,3.25c-3.11,0-6.22-0.66-8.44-2.45c-2.73-2.07-4.05-4.95-4.05-10.23
			v-11.92c0-4.34-0.42-4.67-4.01-5v-1.74h14.56v1.74c-3.54,0.33-3.96,0.66-3.96,5v12.54c0,5.28,2.59,8.77,7.64,8.77
			c5.61,0,8.06-4.15,8.06-11.22v-5.89c0-3.25-0.14-4.95-0.24-6.36c-0.19-2.17-1.51-2.64-4.81-2.83v-1.74h11.69V729.6z"/>
		<path class="st0" d="M-554.7,736.01c-0.52-2.17-1.56-3.96-2.03-4.62c-0.85-0.99-1.23-1.37-4.01-1.37h-3.02v22.15
			c0,3.96,0.47,4.24,4.67,4.57v1.74h-15.65v-1.74c4.01-0.33,4.43-0.61,4.43-4.57v-22.15h-2.88c-2.64,0-3.39,0.42-4.29,1.56
			c-0.66,0.9-1.32,2.59-1.93,4.48h-1.79c0.33-3.44,0.66-7.12,0.75-9.38h1.41c0.71,1.08,1.27,1.18,2.69,1.18h18.85
			c1.27,0,1.93-0.28,2.73-1.18h1.37c0.05,1.98,0.24,6.13,0.47,9.19L-554.7,736.01z"/>
		<path class="st0" d="M-539.1,758.49v-1.74c3.58-0.33,4.01-0.61,4.01-4.57v-17.96c0-3.96-0.47-4.34-4.01-4.62v-1.74h14.56v1.74
			c-3.54,0.33-4.01,0.66-4.01,4.62v17.96c0,3.91,0.42,4.2,4.01,4.57v1.74H-539.1z"/>
		<path class="st0" d="M-493.42,727.19c8.72,0,15.84,6.36,15.84,15.65c0,10.04-7.16,16.36-16.07,16.36
			c-9.43,0-16.26-6.88-16.26-15.98C-509.92,735.16-504.17,727.19-493.42,727.19z M-494.13,729.27c-4.81,0-8.34,4.71-8.34,13.06
			c0,7.97,3.16,14.8,9.52,14.8c4.48,0,7.97-4.34,7.97-12.96C-484.99,734.83-488.66,729.27-494.13,729.27z"/>
		<path class="st0" d="M-430.12,729.6c-2.88,0.38-3.77,0.99-3.91,3.11c-0.14,1.84-0.28,3.44-0.28,7.54v18.76h-2.64l-19.66-23.57
			v10.65c0,4.1,0.09,5.94,0.24,7.31c0.19,2.07,1.18,3.16,4.67,3.35v1.74h-11.69v-1.74c2.69-0.24,3.87-0.94,4.15-3.16
			c0.19-1.7,0.28-3.39,0.28-7.49v-11.17c0-1.56-0.09-2.59-0.99-3.82c-0.85-1.18-1.98-1.32-3.96-1.51v-1.74h9.19l17.96,20.88v-8.48
			c0-4.1-0.05-5.66-0.19-7.4c-0.14-2.03-0.9-3.02-4.81-3.25v-1.74h11.64V729.6z"/>
		<path class="st0" d="M-399.06,735.63c-0.94-3.02-2.26-6.46-6.6-6.46c-2.73,0-4.53,1.93-4.53,4.57c0,2.59,1.74,4.15,5.89,6.22
			c5.04,2.5,8.25,4.95,8.25,9.62c0,5.56-4.62,9.62-11.36,9.62c-3.02,0-5.7-0.8-7.92-1.46c-0.28-1.08-1.08-5.99-1.41-8.2l1.84-0.42
			c0.94,2.97,3.58,8.11,8.2,8.11c2.88,0,4.62-1.79,4.62-4.81c0-2.73-1.7-4.34-5.66-6.46c-4.9-2.64-8.11-5-8.11-9.9
			c0-4.95,3.87-8.86,10.94-8.86c3.25,0,5.7,0.71,6.74,0.85c0.19,1.74,0.52,4.2,0.9,7.17L-399.06,735.63z"/>
	</g>
</g>
</svg>
